<svg xmlns="http://www.w3.org/2000/svg" viewBox="0 0 513.64 336.812">
  <g id="Gruppe_3" data-name="Gruppe 3" transform="translate(0 0)">
    <path id="Pfad_76" data-name="Pfad 76" d="M578.915,245.045c-2.82,19.129-8.678,34.487-16.72,46.735-10.7,16.32-29,22.9-45.356,29.776a119.1,119.1,0,0,1-14.692,5.059c-29.754,8.177-63.055,6.008-89.213,1.69a439.958,439.958,0,0,0-55.692-5.576q-8.01-.286-16.035-.284c-8.25.008-156.8,2.241-192.974-55.743-8.93-14.3-15.051-31.775-17.25-53.074-6.223-60.212,27.977-99.758,72.092-125.606,83.45-48.9,197.837-46.846,280.057,3.339C537.9,124.789,589.177,175.38,578.915,245.045Z" transform="translate(-124.766 -52.509)" fill="#f2f2f2"/>
    <path id="Pfad_77" data-name="Pfad 77" d="M280.513,317.875c0,47.861-35.932,64.572-80.256,64.572S120,365.736,120,317.875s80.256-108.748,80.256-108.748S280.513,270.014,280.513,317.875Z" transform="translate(-120 -142.772)" fill="#74c69d"/>
    <path id="Pfad_78" data-name="Pfad 78" d="M116.5,322.617l.822-40.056,34.207-49.554-34.078,43.271.369-18.01L141.4,222.416,117.922,253.5h0l.665-32.393,25.245-28.543-25.141,23.449.415-59.4L116.5,235.249l.215-3.244L91.045,200.9,116.3,238.232l-2.392,36.177-.071-.96L84.248,240.71l29.5,36.131-.3,4.524-.053.068.025.372-6.067,91.785h8.106l.973-47.409,29.427-36.042Z" transform="translate(-39.172 -90.263)" fill="#3f3d56"/>
    <path id="Pfad_79" data-name="Pfad 79" d="M940.513,324.875c0,47.861-35.932,64.572-80.256,64.572S780,372.736,780,324.875s80.256-108.748,80.256-108.748S940.513,277.014,940.513,324.875Z" transform="translate(-426.872 -146.806)" fill="#74c69d"/>
    <path id="Pfad_80" data-name="Pfad 80" d="M776.5,329.617l.822-40.056,34.207-49.554-34.078,43.271.369-18.01L801.4,229.416,777.922,260.5h0l.665-32.393,25.245-28.543-25.141,23.449.415-59.4L776.5,242.249l.215-3.244L751.045,207.9,776.3,245.232l-2.392,36.177-.071-.96L744.248,247.71l29.5,36.131-.3,4.524-.053.068.025.372-6.067,91.785h8.106l.973-47.409,29.427-36.042Z" transform="translate(-346.044 -94.297)" fill="#3f3d56"/>
    <path id="Pfad_81" data-name="Pfad 81" d="M615.494,215.126c0,52.328-39.286,70.6-87.747,70.6S440,267.454,440,215.126s87.747-118.9,87.747-118.9S615.494,162.8,615.494,215.126Z" transform="translate(-268.787 -77.705)" fill="#74c69d"/>
    <path id="Pfad_82" data-name="Pfad 82" d="M447.378,225.212l.9-43.794,37.4-54.179-37.259,47.309.4-19.691,25.776-39.2-25.669,33.987h0l.727-35.416,27.6-31.207L449.769,108.66l.454-64.941-2.853,85.97.234-3.547L419.542,92.129l27.612,40.821L444.54,172.5l-.078-1.05L412.111,135.66l32.253,39.5-.327,4.946-.058.075.027.406-6.634,100.352h8.863l1.063-51.833L479.472,189.7Z" transform="translate(-191.614 -25.196)" fill="#3f3d56"/>
    <path id="Pfad_83" data-name="Pfad 83" d="M591.192,688.927c0,11.231-92.944,46.18-207.6,46.18S176,700.158,176,688.927s85.454-36.436,200.106-36.436S591.192,677.7,591.192,688.927Z" transform="translate(-146.038 -398.295)" fill="#3f3d56"/>
    <path id="Pfad_84" data-name="Pfad 84" d="M591.192,688.927c0,11.231-92.944,46.18-207.6,46.18S176,700.158,176,688.927s85.454-36.436,200.106-36.436S591.192,677.7,591.192,688.927Z" transform="translate(-146.038 -398.295)" opacity="0.1"/>
    <path id="Pfad_85" data-name="Pfad 85" d="M591.192,688.927c0,11.231-92.944,20.336-207.6,20.336S176,700.158,176,688.927s85.454-36.436,200.106-36.436S591.192,677.7,591.192,688.927Z" transform="translate(-146.038 -398.295)" fill="#3f3d56"/>
    <path id="Pfad_86" data-name="Pfad 86" d="M694.429,605.571c0,16.112,12.765,29.149,28.539,29.149" transform="translate(-387.085 -371.254)" fill="#3f3d56"/>
    <path id="Pfad_87" data-name="Pfad 87" d="M747.769,634.275c0-16.293,14.245-29.477,31.848-29.477" transform="translate(-411.886 -370.808)" fill="#74c69d"/>
    <path id="Pfad_88" data-name="Pfad 88" d="M713.755,609.018c0,15.3,8.14,27.689,18.2,27.689" transform="translate(-396.071 -373.24)" fill="#74c69d"/>
    <path id="Pfad_89" data-name="Pfad 89" d="M747.769,623.137c0-20.819,16.465-37.665,36.812-37.665" transform="translate(-411.886 -359.67)" fill="#3f3d56"/>
    <path id="Pfad_90" data-name="Pfad 90" d="M736.548,672.5s4.047-.1,5.267-.786,6.226-1.509,6.528-.406,6.082,5.486,1.513,5.515-10.617-.564-11.835-1.151S736.548,672.5,736.548,672.5Z" transform="translate(-406.669 -408.83)" fill="#a8a8a8"/>
    <path id="Pfad_91" data-name="Pfad 91" d="M749.938,678.791c-4.569.029-10.617-.564-11.835-1.151-.927-.447-1.3-2.052-1.42-2.792l-.135,0s.256,2.585,1.474,3.172,7.265,1.18,11.835,1.151c1.319-.008,1.775-.38,1.75-.93C751.423,678.577,750.92,678.785,749.938,678.791Z" transform="translate(-406.669 -411.18)" opacity="0.2"/>
    <ellipse id="Ellipse_12" data-name="Ellipse 12" cx="70.626" cy="8.897" rx="70.626" ry="8.897" transform="translate(169.608 279.616)" opacity="0.1"/>
    <rect id="Rechteck_20" data-name="Rechteck 20" width="6.956" height="12.71" transform="translate(264.311 268.601)" fill="#ffb9b9"/>
    <rect id="Rechteck_21" data-name="Rechteck 21" width="26.752" height="38.131" transform="translate(245.049 97.013)" fill="#ff6584"/>
    <path id="Pfad_92" data-name="Pfad 92" d="M521.654,399.312l.926,5.866L498.2,411.043l-3.087-10.753Z" transform="translate(-230.206 -230.134)" fill="#ffb9b9"/>
    <path id="Pfad_93" data-name="Pfad 93" d="M589.719,316.141s-.617,4.4-1.852,4.4-5.556,1.711-5.556,1.711l-1.235,4.644,8.642,4.155,14.2-1.222,4.012-4.888-4.012-3.177s-3.4-5.866-2.16-7.088S589.719,316.141,589.719,316.141Z" transform="translate(-334.382 -203.419)" fill="#ffb9b9"/>
    <path id="Pfad_94" data-name="Pfad 94" d="M589.719,316.141s-.617,4.4-1.852,4.4-5.556,1.711-5.556,1.711l-1.235,4.644,8.642,4.155,14.2-1.222,4.012-4.888-4.012-3.177s-3.4-5.866-2.16-7.088S589.719,316.141,589.719,316.141Z" transform="translate(-334.382 -203.419)" opacity="0.1"/>
    <path id="Pfad_95" data-name="Pfad 95" d="M519.355,677.948s-2.778,14.664-6.173,15.641,12.963,2.688,12.963,2.688l1.235-5.377s.309-9.776,1.543-11.242S519.355,677.948,519.355,677.948Z" transform="translate(-302.597 -412.966)" fill="#ffb9b9"/>
    <path id="Pfad_96" data-name="Pfad 96" d="M555.068,466.191s44.753-6.354,45.062-7.576,9.259,9.287,3.7,29.816-19.444,68.92-19.444,68.92-14.2,3.422-13.889.733,4.938-49.368,4.938-49.368l-3.086-19.8-5.247,2.444-21.913,34.216L534.08,555.151s-14.2,1.955-12.037-2.2,9.259-36.415,9.259-36.415l19.444-45.458S550.129,466.191,555.068,466.191Z" transform="translate(-306.829 -286.503)" fill="#2f2e41"/>
    <ellipse id="Ellipse_13" data-name="Ellipse 13" cx="12.963" cy="10.265" rx="12.963" ry="10.265" transform="translate(246.541 95.492)" fill="#ffb9b9"/>
    <path id="Pfad_97" data-name="Pfad 97" d="M607.316,332.413s-6.173,4.644-20.679,3.422,4.012,26.151,4.012,26.151l5.864,27.617s25.926-2.444,26.852-7.088S607.316,332.413,607.316,332.413Z" transform="translate(-334.387 -213.825)" fill="#f2f2f2"/>
    <path id="Pfad_98" data-name="Pfad 98" d="M587.722,351.689a19.31,19.31,0,0,1-10.185-11c-2.778-8.065-5.247-16.375-6.79-16.13-1.3.206-13.387,3.9-17.3,6.365-.722.455-1.167.869-1.215,1.211-.309,2.2,11.111,24.2,11.111,24.2s8.951,15.886,5.247,21.018-4.012,11.731,2.778,11.242,29.321-1.466,26.234-15.153c0,0,5.864,9.531,22.222,2.688,0,0,9.876-1.222,9.568-3.91s-15.741-25.906-15.741-25.906-2.469-10.265,2.16-14.175l-10.494-9.776s-2.469-2.933-4.938-1.466a69.361,69.361,0,0,1-8.951,4.155c-.926.244-1.535-.878-1.535-.878a17.434,17.434,0,0,0-2.478,11.387C588.34,341.913,587.722,351.689,587.722,351.689Z" transform="translate(-320.965 -206.95)" fill="#2f2e41"/>
    <path id="Pfad_99" data-name="Pfad 99" d="M503.288,700.631s-.689-1.711-4.666,0c0,0,1.27-5.377-3.051-5.377s-5.864,6.354-5.864,6.354-1.235,4.155-9.568,5.866-1.852,7.576,4.012,7.576,13.58-3.666,13.58-3.666,16.049.244,16.358-2.2-1.543-9.776-2.778-9.776-3.7,3.422-3.7,3.422Z" transform="translate(-285.604 -422.94)" fill="#2f2e41"/>
    <path id="Pfad_100" data-name="Pfad 100" d="M616.113,696.309s-4.321-3.666-6.79,2.444-4.321,8.554-2.778,9.531,2.778.489,2.161,2.444,1.852,6.11,7.407,6.11,7.1-3.177,6.79-5.377-2.778-4.888-2.778-4.888l-2.469-6.843Z" transform="translate(-345.961 -422.92)" fill="#2f2e41"/>
    <path id="Pfad_101" data-name="Pfad 101" d="M647.606,292.033l-16.358,4.4s-14.815,6.843-8.333,8.31,12.037-4.4,12.037-4.4l14.2-2.933Z" transform="translate(-353.072 -190.553)" fill="#ffb9b9"/>
    <path id="Pfad_102" data-name="Pfad 102" d="M578.51,261.6a22.115,22.115,0,0,0-4.958,3.953c-2.987,2.959-5.913,6.492-5.177,10.235a38.444,38.444,0,0,0,1.526,4.138,17.391,17.391,0,0,1,.522,5.791,6.3,6.3,0,0,1-.383,2.442,15.411,15.411,0,0,1-1.521,2.226c-1.486,2.192-1.523,4.8-1.524,7.286a5.028,5.028,0,0,0,.423,2.471,10.245,10.245,0,0,0,1.788,1.981,7.143,7.143,0,0,1,1.663,7.74,4.432,4.432,0,0,0,3.847-1.921,3.708,3.708,0,0,1-1.371,3.454c3.533-.831,7.32-2.233,8.61-4.967a8.581,8.581,0,0,0,.634-2.871c.686-6.858,1.078-13.973-2.029-20.4-.994-2.056-2.346-4.045-2.68-6.231a5.046,5.046,0,0,1,3.221-5.613,2.16,2.16,0,0,0,.883,1.473c.564.332,1.608.124,1.618-.433l1.224,1.35a2.9,2.9,0,0,0,1.163-.8l.84.814,1.786-1.029,1.55,1.324a2.964,2.964,0,0,0,1.361-1.173,2.028,2.028,0,0,0,1.343.871c1.3.093,1.569-1.541,2.7-2.05a2.212,2.212,0,0,1,2.392.574,2.56,2.56,0,0,1,.482,2.094c-.47,3.361-4.091,6.427-3.018,9.7.6,1.84,2.637,3.316,2.79,5.213.123,1.516-1,2.951-.986,4.47.02,1.781,1.574,3.293,3.09,4.608q4.049,3.51,8.524,6.69l-.922-1.277a3.477,3.477,0,0,1,2.347.683,2.683,2.683,0,0,0-.589-2.187c-2.481-4.126-4.485-8.519-4.784-13.083-.416-6.344,2.465-12.786.639-18.972a16.407,16.407,0,0,0-6.971-8.824,9.4,9.4,0,0,0-5.155-1.881,49.091,49.091,0,0,0-7.343.046,19.859,19.859,0,0,0-7.562,2.087Z" transform="translate(-327.826 -171.72)" fill="#ef8f22"/>
    <path id="Pfad_103" data-name="Pfad 103" d="M646.838,298.006a31.486,31.486,0,0,0,4.938,0,14.314,14.314,0,0,0,3.7-1.466l11.728-6.843-10.185,1.222s1.852-11.242,1.235-11.487,29.938-4.888,29.321,2.688-17.9,22.485-27.778,25.417l-6.481.733Z" transform="translate(-364.958 -182.351)" fill="#2f2e41"/>
    <rect id="Rechteck_22" data-name="Rechteck 22" width="145.531" height="27.115" transform="translate(169.608 202.3)" fill="#fff"/>
    <rect id="Rechteck_23" data-name="Rechteck 23" width="108.078" height="14.405" transform="translate(188.067 208.443)" fill="#3f3d56"/>
    <path id="Pfad_104" data-name="Pfad 104" d="M505.941,553.692c-.043-.369-2.107-.534-4.937-.441,1.64-1.829,2.59-3.289,2.223-3.519-.347-.217-1.766.721-3.493,2.244-.163-2.043-.542-3.476-.984-3.476-.482,0-.889,1.7-1.023,4.047-2.4-1.369-4.345-2.172-4.644-1.873s1.014,1.494,3.08,2.939c-2.726.32-4.647.772-4.6,1.135s2.106.534,4.937.441c-1.64,1.829-2.591,3.289-2.223,3.519.347.217,1.766-.721,3.493-2.244.163,2.043.542,3.476.984,3.476.482,0,.889-1.7,1.023-4.047,2.4,1.369,4.345,2.172,4.644,1.873s-1.014-1.494-3.08-2.938C504.063,554.506,505.984,554.054,505.941,553.692Z" transform="translate(-292.758 -338.362)" fill="#fff"/>
    <path id="Pfad_105" data-name="Pfad 105" d="M539.941,553.692c-.043-.369-2.107-.534-4.937-.441,1.64-1.829,2.59-3.289,2.223-3.519-.347-.217-1.766.721-3.494,2.244-.163-2.043-.542-3.476-.984-3.476-.482,0-.889,1.7-1.023,4.047-2.4-1.369-4.345-2.172-4.644-1.873s1.014,1.494,3.08,2.939c-2.726.32-4.647.772-4.6,1.135s2.106.534,4.937.441c-1.64,1.829-2.59,3.289-2.223,3.519.347.217,1.766-.721,3.493-2.244.163,2.043.542,3.476.984,3.476.482,0,.889-1.7,1.023-4.047,2.4,1.369,4.345,2.172,4.644,1.873s-1.014-1.494-3.08-2.938C538.063,554.506,539.984,554.054,539.941,553.692Z" transform="translate(-308.567 -338.362)" fill="#fff"/>
    <path id="Pfad_106" data-name="Pfad 106" d="M573.941,553.692c-.043-.369-2.106-.534-4.937-.441,1.64-1.829,2.59-3.289,2.223-3.519-.347-.217-1.766.721-3.493,2.244-.163-2.043-.542-3.476-.984-3.476-.482,0-.889,1.7-1.023,4.047-2.4-1.369-4.345-2.172-4.644-1.873s1.014,1.494,3.08,2.939c-2.726.32-4.647.772-4.6,1.135s2.106.534,4.937.441c-1.64,1.829-2.591,3.289-2.223,3.519.347.217,1.766-.721,3.493-2.244.163,2.043.542,3.476.984,3.476.482,0,.889-1.7,1.023-4.047,2.4,1.369,4.345,2.172,4.644,1.873s-1.014-1.494-3.08-2.938C572.063,554.506,573.984,554.054,573.941,553.692Z" transform="translate(-324.375 -338.362)" fill="#fff"/>
    <path id="Pfad_107" data-name="Pfad 107" d="M607.941,553.692c-.043-.369-2.107-.534-4.937-.441,1.64-1.829,2.591-3.289,2.223-3.519-.347-.217-1.766.721-3.493,2.244-.163-2.043-.542-3.476-.984-3.476-.482,0-.889,1.7-1.023,4.047-2.4-1.369-4.345-2.172-4.644-1.873s1.014,1.494,3.08,2.939c-2.726.32-4.647.772-4.6,1.135s2.106.534,4.937.441c-1.64,1.829-2.591,3.289-2.223,3.519.347.217,1.766-.721,3.493-2.244.163,2.043.542,3.476.984,3.476.482,0,.889-1.7,1.023-4.047,2.4,1.369,4.345,2.172,4.644,1.873s-1.014-1.494-3.08-2.938C606.063,554.506,607.984,554.054,607.941,553.692Z" transform="translate(-340.184 -338.362)" fill="#fff"/>
    <path id="Pfad_108" data-name="Pfad 108" d="M641.941,553.692c-.043-.369-2.106-.534-4.937-.441,1.64-1.829,2.591-3.289,2.223-3.519-.347-.217-1.766.721-3.493,2.244-.163-2.043-.542-3.476-.984-3.476-.482,0-.889,1.7-1.023,4.047-2.4-1.369-4.345-2.172-4.644-1.873s1.014,1.494,3.08,2.939c-2.726.32-4.647.772-4.6,1.135s2.106.534,4.937.441c-1.64,1.829-2.591,3.289-2.223,3.519.347.217,1.766-.721,3.493-2.244.163,2.043.542,3.476.984,3.476.482,0,.889-1.7,1.023-4.047,2.4,1.369,4.345,2.172,4.644,1.873s-1.014-1.494-3.08-2.938C640.063,554.506,641.984,554.054,641.941,553.692Z" transform="translate(-355.993 -338.362)" fill="#fff"/>
    <path id="Pfad_109" data-name="Pfad 109" d="M548.657,500.59s-1.543,16.13,5.864,16.863.617-18.33.617-18.33Z" transform="translate(-319.246 -309.905)" fill="#ffb9b9"/>
    <path id="Pfad_110" data-name="Pfad 110" d="M549.981,346.835l-2.16.489s-8.951,56.7-3.086,67.7c0,0,6.173-2.688,9.259-2.2l4.938-46.191Z" transform="translate(-316.558 -222.137)" fill="#2f2e41"/>
  </g>
</svg>
