<svg xmlns="http://www.w3.org/2000/svg" width="525.451" height="331.835" xmlns:xlink="http://www.w3.org/1999/xlink" viewBox="0 0 525.451 331.835">
  <defs>
    <linearGradient id="linear-gradient" y1="0.5" x2="1" y2="0.5" gradientUnits="objectBoundingBox">
      <stop offset="0" stop-color="gray" stop-opacity="0.251"/>
      <stop offset="0.54" stop-color="gray" stop-opacity="0.122"/>
      <stop offset="1" stop-color="gray" stop-opacity="0.102"/>
    </linearGradient>
  </defs>
  <g id="Gruppe_2" data-name="Gruppe 2" transform="translate(0 0.006)">
    <path id="Pfad_2" data-name="Pfad 2" d="M314.119,92.637c-33.681.041-66.1-8.693-97.108-18.4s-61.779-20.569-94.833-25.173c-21.258-2.96-45.432-2.688-62.049,8.058-16,10.338-20.627,27.448-22.862,43.256-1.681,11.892-2.456,24.373,3.839,35.251,4.371,7.551,11.85,13.776,17.122,20.973,18.4,25.037,7.335,57.019-10.548,82.637-8.385,12.02-18.208,23.54-24.547,36.249s-8.939,27.118-2.474,39.662c6.407,12.432,20.88,21.455,36.411,27.617,31.54,12.539,68.262,15.227,104,16.261,79.1,2.3,158.36-2.387,237.4-7.069,29.251-1.731,58.633-3.475,87.281-8.491,15.905-2.782,32.284-6.913,43.562-15.964,14.315-11.492,17.244-30.255,6.826-43.742-17.469-22.621-63.531-26.888-76.057-51.364-6.907-13.475-.951-28.928,7.822-41.916,18.816-27.869,51.2-52.831,51.749-84,.374-21.405-16.469-42.287-41.624-51.59-26.368-9.744-62.319-7.238-80.793,10.923C378.241,84.525,343.857,92.608,314.119,92.637Z" transform="translate(-16.91 -47.46)" fill="#74c69d" opacity="0.1"/>
    <path id="Pfad_3" data-name="Pfad 3" d="M996,690.226s-5.538-3.343-11.026-.964c0,0,1.69,2.976,8.638,2.7Z" transform="translate(-548.785 -424.215)" fill="#74c69d"/>
    <path id="Pfad_4" data-name="Pfad 4" d="M1006.524,693.25s1.685,5.87-2.541,9.864c0,0-2.541-2.419,0-8.347Z" transform="translate(-558.61 -427.061)" fill="#74c69d"/>
    <path id="Pfad_5" data-name="Pfad 5" d="M1010.753,674.344s-.41-4.992-12.733-3.335c0,0-.059,3.219,4.267,4.744S1008.595,675.993,1010.753,674.344Z" transform="translate(-555.955 -413.79)" fill="#74c69d"/>
    <path id="Pfad_6" data-name="Pfad 6" d="M1023.594,679.5s5.208,1.529.563,12.1a5.588,5.588,0,0,1-4.055-4.909C1019.485,682.484,1021.314,681.033,1023.594,679.5Z" transform="translate(-568.021 -418.979)" fill="#74c69d"/>
    <path id="Pfad_7" data-name="Pfad 7" d="M1028.923,651.718s.708-8.215-11.886-7.374c0,0-.9,7.419,9.665,9.349Z" transform="translate(-566.392 -398.279)" fill="#74c69d"/>
    <path id="Pfad_8" data-name="Pfad 8" d="M1044.455,629.761s-1.726-9.312-14.315-6.537c0,0-.045,8.05,12.26,8.755Z" transform="translate(-573.602 -385.596)" fill="#74c69d"/>
    <path id="Pfad_9" data-name="Pfad 9" d="M1056.675,606.774s-2.893-9.068-15.365-6.356c0,0,2.969,8.157,14.536,8.03Z" transform="translate(-579.739 -372.197)" fill="#74c69d"/>
    <path id="Pfad_10" data-name="Pfad 10" d="M1070.1,583.686s-2.825-9.411-14.869-6.6c0,0,4.019,8.941,14.071,8.186Z" transform="translate(-587.387 -358.473)" fill="#74c69d"/>
    <path id="Pfad_11" data-name="Pfad 11" d="M1080.15,558.956s-2.172-11.509-13.4-8.961c0,0,3.262,10.47,12.576,10.639Z" transform="translate(-593.717 -342.639)" fill="#74c69d"/>
    <path id="Pfad_12" data-name="Pfad 12" d="M1087.208,533.565s-2.609-11.6-13.968-8.244c0,0,4.452,10.964,13.161,9.831Z" transform="translate(-597.282 -327.994)" fill="#74c69d"/>
    <path id="Pfad_13" data-name="Pfad 13" d="M1093.242,505.821s-4.141-11.6-12.923-11.29c0,0,4.231,12.255,12.188,13.6Z" transform="translate(-601.172 -310.25)" fill="#74c69d"/>
    <path id="Pfad_14" data-name="Pfad 14" d="M1097.872,479.785s-4.506-13.965-11.652-12.889c0,0,3.118,10.676,11.4,15.066Z" transform="translate(-604.414 -293.975)" fill="#74c69d"/>
    <path id="Pfad_15" data-name="Pfad 15" d="M1100.084,452.742s-4.226-11.636-11.264-12.1c0,0,2.875,11.451,11.125,15.128Z" transform="translate(-605.842 -278.576)" fill="#74c69d"/>
    <path id="Pfad_16" data-name="Pfad 16" d="M1103.623,426.652s-5.267-11.649-9.913-11.912c0,0,2.289,11.471,9.462,13.825Z" transform="translate(-608.529 -263.352)" fill="#74c69d"/>
    <path id="Pfad_17" data-name="Pfad 17" d="M1107.374,399.581s-3.24-12.65-7.894-13.7c0,0,.635,10.35,7.425,14.649Z" transform="translate(-611.699 -246.388)" fill="#74c69d"/>
    <path id="Pfad_18" data-name="Pfad 18" d="M1112.148,370.424s-3.406-10.086-7.178-11.624c0,0,.743,11.892,6.308,14.089Z" transform="translate(-614.716 -230.47)" fill="#74c69d"/>
    <path id="Pfad_19" data-name="Pfad 19" d="M1120.673,340.642l.685-17.782s-7.052,13.4-1.194,20.9Z" transform="translate(-621.785 -209.345)" fill="#74c69d"/>
    <path id="Pfad_20" data-name="Pfad 20" d="M1132.865,303.54s5.078-12.984,6.308-13.71c0,0-9.958,8.425-8.984,19.262Z" transform="translate(-628.534 -189.929)" fill="#74c69d"/>
    <path id="Pfad_21" data-name="Pfad 21" d="M1041.711,662.133s8.931-1.068,8.665,10.478c0,0-8.07,1.2-10.706-8.347Z" transform="translate(-578.838 -408.755)" fill="#74c69d"/>
    <path id="Pfad_22" data-name="Pfad 22" d="M1060.339,639.06s10.318-.029,9.462,11.789c0,0-8.664,1.418-11.521-9.555Z" transform="translate(-589.063 -395.208)" fill="#74c69d"/>
    <path id="Pfad_23" data-name="Pfad 23" d="M1074.619,617.318s9.367-4.019,15.36,6.356c0,0-8.651,3.347-16.189-4.678Z" transform="translate(-597.585 -381.978)" fill="#74c69d"/>
    <path id="Pfad_24" data-name="Pfad 24" d="M1087.723,592.773s9.593-4.274,15.225,5.857c0,0-9.994,3.149-16.018-4.254Z" transform="translate(-604.804 -367.475)" fill="#74c69d"/>
    <path id="Pfad_25" data-name="Pfad 25" d="M1095.7,567.8s9.232-8.067,16.6.091c0,0-9.431,6.641-17.023,1.707Z" transform="translate(-609.392 -351.227)" fill="#74c69d"/>
    <path id="Pfad_26" data-name="Pfad 26" d="M1102.673,540.452s9.286-8.244,16.594.379c0,0-10.422,6.772-16.928,1.352Z" transform="translate(-613.271 -335.157)" fill="#74c69d"/>
    <path id="Pfad_27" data-name="Pfad 27" d="M1106.93,509.237s7.155-10.3,15.581-8c0,0-7.425,10.911-15.5,10.424Z" transform="translate(-615.792 -313.996)" fill="#74c69d"/>
    <path id="Pfad_28" data-name="Pfad 28" d="M1111.385,482.431s7.209-12.976,14.031-10.717c0,0-5.2,9.975-14.216,12.906Z" transform="translate(-618.139 -296.686)" fill="#74c69d"/>
    <path id="Pfad_29" data-name="Pfad 29" d="M1111.841,455.424s7.412-10.214,14.355-8.965c0,0-6.06,10.358-15.076,11.921Z" transform="translate(-618.094 -281.934)" fill="#74c69d"/>
    <path id="Pfad_30" data-name="Pfad 30" d="M1114,426.631s5.745-11.463,10.413-11.542c0,0-2.758,11.381-10.025,13.487Z" transform="translate(-619.677 -263.558)" fill="#74c69d"/>
    <path id="Pfad_31" data-name="Pfad 31" d="M1116.5,401.932s6.385-11.607,11.183-11.632c0,0-3.267,9.926-10.971,12.65Z" transform="translate(-621.05 -248.986)" fill="#74c69d"/>
    <path id="Pfad_32" data-name="Pfad 32" d="M1118.63,373.512s4.776-9.6,8.732-10.692c0,0-2.388,11.706-8.2,13.24Z" transform="translate(-622.221 -232.833)" fill="#74c69d"/>
    <path id="Pfad_33" data-name="Pfad 33" d="M1123.489,343.936l10.674-14.876s-2.735,14.674-12.233,17.724Z" transform="translate(-624.034 -212.989)" fill="#74c69d"/>
    <path id="Pfad_34" data-name="Pfad 34" d="M1135.348,313.027s12.4-7.832,12.855-9.1c0,0-6.308,10.969-18.023,12.906Z" transform="translate(-628.567 -198.218)" fill="#74c69d"/>
    <path id="Pfad_35" data-name="Pfad 35" d="M1142.882,299.6s14.243-12.527,17.879-12.514a23.584,23.584,0,0,0-18.221,11.847Z" transform="translate(-635.357 -188.319)" fill="#74c69d"/>
    <path id="Pfad_36" data-name="Pfad 36" d="M1118.94,347.233l.518.062c2.676-19.163,6.578-30.5,10.985-31.892l-.171-.453C1125.6,316.434,1121.67,327.6,1118.94,347.233Z" transform="translate(-622.391 -204.695)" fill="#444053"/>
    <path id="Pfad_37" data-name="Pfad 37" d="M1110.2,437.07l.784.058c.167-1.789.293-3.619.378-5.445.748-15.861,1.906-30.428,3.429-41.347l-.451-.515c-1.527,10.944-3.014,25.948-3.762,41.834C1110.493,433.467,1110.366,435.289,1110.2,437.07Z" transform="translate(-617.589 -248.704)" fill="#444053"/>
    <path id="Pfad_38" data-name="Pfad 38" d="M976.483,589.286c.135-.054,13.936-5.692,28.26-19.138a104.524,104.524,0,0,0,20.659-26.793c6.623-12.337,10.661-27.5,12.012-42.225l-.816.35a106.38,106.38,0,0,1-32.572,67.951c-14.184,13.326-27.832,18.907-27.967,18.961Z" transform="translate(-543.889 -314.132)" fill="#444053"/>
    <path id="Pfad_39" data-name="Pfad 39" d="M523.677,132.69H90.727a3.7,3.7,0,0,0-3.857,3.528V146.5H527.534v-10.28A3.7,3.7,0,0,0,523.677,132.69Z" transform="translate(-55.348 -97.562)" fill="#3f3d56"/>
    <path id="Pfad_40" data-name="Pfad 40" d="M86.87,166.19V397.531c0,3.929,3.482,7.115,7.777,7.115h425.11c4.3,0,7.777-3.185,7.777-7.115V166.19Z" transform="translate(-55.348 -117.253)" fill="#fff"/>
    <ellipse id="Ellipse_7" data-name="Ellipse 7" cx="1.802" cy="1.649" rx="1.802" ry="1.649" transform="translate(36.7 40.28)" fill="#fa5959" opacity="0.8"/>
    <ellipse id="Ellipse_8" data-name="Ellipse 8" cx="1.802" cy="1.649" rx="1.802" ry="1.649" transform="translate(41.656 40.28)" fill="#fed253" opacity="0.8"/>
    <ellipse id="Ellipse_9" data-name="Ellipse 9" cx="1.802" cy="1.649" rx="1.802" ry="1.649" transform="translate(46.612 40.28)" fill="#8ccf4d" opacity="0.8"/>
    <rect id="Rechteck_16" data-name="Rechteck 16" width="354.153" height="142.463" transform="translate(72.484 87.51)" opacity="0.05"/>
    <rect id="Rechteck_17" data-name="Rechteck 17" width="348.746" height="139.322" transform="translate(75.188 88.59)" fill="#3f3d56"/>
    <path id="Pfad_41" data-name="Pfad 41" d="M352.474,349.38c-19.161,0-34.694,14.21-34.694,31.739s15.533,31.739,34.694,31.739,34.694-14.21,34.694-31.739S371.635,349.38,352.474,349.38Zm6.222,32.5V396.91H346.432V381.882a8.846,8.846,0,0,1-3.5-10.37,10.489,10.489,0,0,1,19.264,0A8.846,8.846,0,0,1,358.7,381.882Z" transform="translate(-182.215 -224.933)" fill="#74c69d"/>
    <path id="Pfad_42" data-name="Pfad 42" d="M352.474,349.38c-19.161,0-34.694,14.21-34.694,31.739s15.533,31.739,34.694,31.739,34.694-14.21,34.694-31.739S371.635,349.38,352.474,349.38Zm6.222,32.5V396.91H346.432V381.882a8.846,8.846,0,0,1-3.5-10.37,10.489,10.489,0,0,1,19.264,0A8.846,8.846,0,0,1,358.7,381.882Z" transform="translate(-182.215 -224.933)" opacity="0.05"/>
    <path id="Pfad_43" data-name="Pfad 43" d="M340.387,327.38c-24.636,0-44.607,18.27-44.607,40.807s19.971,40.807,44.607,40.807,44.607-18.27,44.607-40.807-19.971-40.807-44.607-40.807Zm8,41.788v19.32h-15.77v-19.32a11.376,11.376,0,0,1-4.5-13.336,13.489,13.489,0,0,1,24.774,0A11.376,11.376,0,0,1,348.385,369.168Z" transform="translate(-170.128 -212.002)" fill="#74c69d"/>
    <rect id="Rechteck_18" data-name="Rechteck 18" width="144.184" height="14.015" transform="translate(233.34 150.831)" fill="#fff"/>
    <rect id="Rechteck_19" data-name="Rechteck 19" width="31.09" height="14.015" transform="translate(346.435 176.388)" fill="#74c69d"/>
    <path id="Pfad_44" data-name="Pfad 44" d="M558.313,425.765H555.7l2.32-2.119a.2.2,0,0,0,0-.293.24.24,0,0,0-.32,0l-2.32,2.123v-2.391a.216.216,0,0,0-.225-.206.221.221,0,0,0-.225.206v2.391l-2.316-2.135a.24.24,0,0,0-.32,0,.2.2,0,0,0,0,.293l2.32,2.119h-2.613a.221.221,0,0,0-.225.206.216.216,0,0,0,.225.206h2.613l-2.32,2.123a.2.2,0,0,0,0,.293.251.251,0,0,0,.32,0l2.316-2.123v2.387a.226.226,0,0,0,.451,0v-2.387l2.32,2.123a.251.251,0,0,0,.32,0,.2.2,0,0,0,0-.293l-2.32-2.123h2.609a.2.2,0,1,0,0-.4Z" transform="translate(-310.78 -268.137)" fill="#74c69d"/>
    <path id="Pfad_45" data-name="Pfad 45" d="M579.313,425.765H576.7l2.32-2.119a.2.2,0,0,0,0-.293.24.24,0,0,0-.32,0l-2.32,2.123v-2.391a.216.216,0,0,0-.225-.206.221.221,0,0,0-.225.206v2.391l-2.316-2.135a.24.24,0,0,0-.32,0,.2.2,0,0,0,0,.293l2.32,2.119h-2.613a.221.221,0,0,0-.225.206.216.216,0,0,0,.225.206h2.613l-2.32,2.123a.2.2,0,0,0,0,.293.251.251,0,0,0,.32,0l2.316-2.123v2.387a.226.226,0,0,0,.451,0v-2.387l2.32,2.123a.251.251,0,0,0,.32,0,.2.2,0,0,0,0-.293l-2.32-2.123h2.609a.2.2,0,1,0,0-.4Z" transform="translate(-322.318 -268.137)" fill="#74c69d"/>
    <path id="Pfad_46" data-name="Pfad 46" d="M600.313,425.765H597.7l2.32-2.119a.2.2,0,0,0,0-.293.24.24,0,0,0-.32,0l-2.321,2.123v-2.391a.216.216,0,0,0-.225-.206.221.221,0,0,0-.225.206v2.391l-2.316-2.135a.24.24,0,0,0-.32,0,.2.2,0,0,0,0,.293l2.32,2.119h-2.613a.221.221,0,0,0-.225.206.216.216,0,0,0,.225.206h2.613l-2.32,2.123a.2.2,0,0,0,0,.293.251.251,0,0,0,.32,0l2.316-2.123v2.387a.226.226,0,0,0,.451,0v-2.387l2.321,2.123a.251.251,0,0,0,.32,0,.2.2,0,0,0,0-.293l-2.32-2.123h2.609a.2.2,0,1,0,0-.4Z" transform="translate(-333.856 -268.137)" fill="#74c69d"/>
    <path id="Pfad_47" data-name="Pfad 47" d="M621.313,425.765H618.7l2.321-2.119a.2.2,0,0,0,0-.293.24.24,0,0,0-.32,0l-2.32,2.123v-2.391a.216.216,0,0,0-.225-.206.221.221,0,0,0-.225.206v2.391l-2.316-2.135a.24.24,0,0,0-.32,0,.2.2,0,0,0,0,.293l2.32,2.119h-2.613a.221.221,0,0,0-.225.206.216.216,0,0,0,.225.206h2.613l-2.32,2.123a.2.2,0,0,0,0,.293.251.251,0,0,0,.32,0l2.316-2.123v2.387a.226.226,0,0,0,.451,0v-2.387l2.32,2.123a.251.251,0,0,0,.32,0,.2.2,0,0,0,0-.293l-2.321-2.123h2.609a.2.2,0,1,0,0-.4Z" transform="translate(-345.394 -268.137)" fill="#74c69d"/>
    <path id="Pfad_48" data-name="Pfad 48" d="M642.313,425.765H639.7l2.32-2.119a.2.2,0,0,0,0-.293.24.24,0,0,0-.32,0l-2.32,2.123v-2.391a.216.216,0,0,0-.225-.206.221.221,0,0,0-.225.206v2.391l-2.316-2.135a.24.24,0,0,0-.32,0,.2.2,0,0,0,0,.293l2.32,2.119h-2.613a.221.221,0,0,0-.225.206.216.216,0,0,0,.225.206h2.613l-2.32,2.123a.2.2,0,0,0,0,.293.251.251,0,0,0,.32,0l2.316-2.123v2.387a.226.226,0,0,0,.451,0v-2.387l2.32,2.123a.251.251,0,0,0,.32,0,.2.2,0,0,0,0-.293l-2.32-2.123h2.609a.2.2,0,1,0,0-.4Z" transform="translate(-356.932 -268.137)" fill="#74c69d"/>
    <path id="Pfad_49" data-name="Pfad 49" d="M663.313,425.765H660.7l2.32-2.119a.2.2,0,0,0,0-.293.24.24,0,0,0-.32,0l-2.32,2.123v-2.391a.216.216,0,0,0-.225-.206.221.221,0,0,0-.225.206v2.391l-2.316-2.135a.24.24,0,0,0-.32,0,.2.2,0,0,0,0,.293l2.32,2.119h-2.613a.221.221,0,0,0-.225.206.216.216,0,0,0,.225.206h2.613l-2.32,2.123a.2.2,0,0,0,0,.293.251.251,0,0,0,.32,0l2.316-2.123v2.387a.226.226,0,0,0,.451,0v-2.387l2.32,2.123a.251.251,0,0,0,.32,0,.2.2,0,0,0,0-.293l-2.32-2.123h2.609a.2.2,0,1,0,0-.4Z" transform="translate(-368.469 -268.137)" fill="#74c69d"/>
    <path id="Pfad_50" data-name="Pfad 50" d="M684.313,425.765H681.7l2.32-2.119a.2.2,0,0,0,0-.293.24.24,0,0,0-.32,0l-2.32,2.123v-2.391a.216.216,0,0,0-.225-.206.221.221,0,0,0-.225.206v2.391l-2.316-2.135a.24.24,0,0,0-.32,0,.2.2,0,0,0,0,.293l2.32,2.119h-2.613a.221.221,0,0,0-.225.206.216.216,0,0,0,.225.206h2.613l-2.32,2.123a.2.2,0,0,0,0,.293.251.251,0,0,0,.32,0l2.316-2.123v2.387a.226.226,0,0,0,.451,0v-2.387l2.32,2.123a.251.251,0,0,0,.32,0,.2.2,0,0,0,0-.293l-2.32-2.123h2.609a.2.2,0,1,0,0-.4Z" transform="translate(-380.007 -268.137)" fill="#74c69d"/>
    <path id="Pfad_51" data-name="Pfad 51" d="M705.313,425.765H702.7l2.32-2.119a.2.2,0,0,0,0-.293.24.24,0,0,0-.32,0l-2.32,2.123v-2.391a.216.216,0,0,0-.225-.206.221.221,0,0,0-.225.206v2.391l-2.316-2.135a.24.24,0,0,0-.32,0,.2.2,0,0,0,0,.293l2.321,2.119h-2.613a.221.221,0,0,0-.225.206.216.216,0,0,0,.225.206h2.613l-2.321,2.123a.2.2,0,0,0,0,.293.251.251,0,0,0,.32,0l2.316-2.123v2.387a.226.226,0,0,0,.451,0v-2.387l2.32,2.123a.251.251,0,0,0,.32,0,.2.2,0,0,0,0-.293l-2.32-2.123h2.609a.2.2,0,1,0,0-.4Z" transform="translate(-391.545 -268.137)" fill="#74c69d"/>
    <path id="Pfad_52" data-name="Pfad 52" d="M726.313,425.765H723.7l2.32-2.119a.2.2,0,0,0,0-.293.24.24,0,0,0-.32,0l-2.32,2.123v-2.391a.216.216,0,0,0-.225-.206.221.221,0,0,0-.225.206v2.391l-2.316-2.135a.24.24,0,0,0-.32,0,.2.2,0,0,0,0,.293l2.32,2.119h-2.613a.221.221,0,0,0-.225.206.216.216,0,0,0,.225.206h2.613l-2.32,2.123a.2.2,0,0,0,0,.293.251.251,0,0,0,.32,0l2.316-2.123v2.387a.226.226,0,0,0,.451,0v-2.387l2.32,2.123a.251.251,0,0,0,.32,0,.2.2,0,0,0,0-.293l-2.321-2.123h2.609a.2.2,0,1,0,0-.4Z" transform="translate(-403.083 -268.137)" fill="#74c69d"/>
    <path id="Pfad_53" data-name="Pfad 53" d="M747.313,425.765H744.7l2.32-2.119a.2.2,0,0,0,0-.293.24.24,0,0,0-.32,0l-2.32,2.123v-2.391a.216.216,0,0,0-.225-.206.221.221,0,0,0-.225.206v2.391l-2.316-2.135a.24.24,0,0,0-.32,0,.2.2,0,0,0,0,.293l2.32,2.119h-2.613a.221.221,0,0,0-.225.206.216.216,0,0,0,.225.206h2.613l-2.32,2.123a.2.2,0,0,0,0,.293.251.251,0,0,0,.32,0l2.316-2.123v2.387a.226.226,0,0,0,.451,0v-2.387l2.32,2.123a.251.251,0,0,0,.32,0,.2.2,0,0,0,0-.293l-2.32-2.123h2.609a.2.2,0,1,0,0-.4Z" transform="translate(-414.621 -268.137)" fill="#74c69d"/>
    <path id="Pfad_54" data-name="Pfad 54" d="M768.313,425.765H765.7l2.32-2.119a.2.2,0,0,0,0-.293.24.24,0,0,0-.32,0l-2.32,2.123v-2.391a.216.216,0,0,0-.225-.206.221.221,0,0,0-.225.206v2.391l-2.316-2.135a.24.24,0,0,0-.32,0,.2.2,0,0,0,0,.293l2.32,2.119h-2.613a.221.221,0,0,0-.225.206.216.216,0,0,0,.225.206h2.613l-2.32,2.123a.2.2,0,0,0,0,.293.25.25,0,0,0,.32,0l2.316-2.123v2.387a.226.226,0,0,0,.451,0v-2.387l2.321,2.123a.25.25,0,0,0,.32,0,.2.2,0,0,0,0-.293l-2.32-2.123h2.609a.2.2,0,1,0,0-.4Z" transform="translate(-426.159 -268.137)" fill="#74c69d"/>
    <path id="Pfad_55" data-name="Pfad 55" d="M853.853,502.051a6.777,6.777,0,0,0-.2-1.48c-.406-1.393-1.32-3.079-2.825-3.5a24.967,24.967,0,0,1-4.479-1.731c-.27-4.419.838-8.941-.369-13.223a31.4,31.4,0,0,1-1.392-4.67c-.248-1.995.347-4.122-.523-5.96a6.3,6.3,0,0,0-3.807-3.009,22,22,0,0,0-5.078-.824c-2.163-.161-9.165-.919-11.607.849h0a2.456,2.456,0,0,0-.451.412h0a1.633,1.633,0,0,0-.144.214l-.023.033a1.6,1.6,0,0,0-.122.268h0a1.936,1.936,0,0,0-.077.309v.742c.031.371.09.742.09,1.109a2.193,2.193,0,0,1-.054.544,3.7,3.7,0,0,1-.748,1.336h0l-.081.107c-.05.066-.1.128-.144.194s-.081.115-.117.173-.072.095-.1.148a1.964,1.964,0,0,0-.117.21c0,.041-.049.078-.068.12a1.929,1.929,0,0,0-.135.346,2.11,2.11,0,0,0-.027,1.1,3.91,3.91,0,0,0,.617,1.3c.113.169.234.334.36.5l.315.392a8.147,8.147,0,0,0-.095,1.154,8.284,8.284,0,0,0,3.558,6.7,23.114,23.114,0,0,1-.057,5.232c-.041.363-.09.73-.144,1.092s-.095.6-.149.9a4.983,4.983,0,0,1-1.969-.136q-.441-.18-.9-.317c-1.311-.3-2.649.894-3.947.532a.456.456,0,0,1-.059.165,1.888,1.888,0,0,0-.9-.243,3.369,3.369,0,0,1-1.956-1.026l-1.717-1.48a1.8,1.8,0,0,1-.3-.3,2.027,2.027,0,0,1-.207-.507,5.866,5.866,0,0,0-1.663-2.18,1.127,1.127,0,0,0-.491-.326.823.823,0,0,0-.225,0,1.849,1.849,0,0,0-.149-.165,4.067,4.067,0,0,0-.374-.346c-.82-.692-.9-1.286-1.613-2.061a19.751,19.751,0,0,1-1.685-2.329c-.059-.433-.14-.878-.239-1.327a16,16,0,0,0-.987-3.009l-.9-1.826-.1.095c-.653-.89-1.352-1.377-1.978-1.261-1.05.2-1.568,2.061-1.4,4.5l.36,2.473a.712.712,0,0,0,.049.185,4.193,4.193,0,0,0-.1.89c0,.346.351.6.536.911a2.419,2.419,0,0,1,.451,1.406c-.023.177-.081.346-.09.519a1.9,1.9,0,0,0,.424,1.072l2.253,3.462.451.725.027.033a1.817,1.817,0,0,0,.6.635,7.056,7.056,0,0,0,.743,2.5c.077.157.162.3.252.453a14.82,14.82,0,0,0,2.127,2.527l1.072,1.1c1.059,1.08,2.118,2.164,3.267,3.161a4.4,4.4,0,0,0,1.46.936,1.779,1.779,0,0,0,1.64-.218q0,.767,0,1.533a.947.947,0,0,1,.791.487.8.8,0,0,1-.079.869A32.778,32.778,0,0,1,814.8,511.7a14.959,14.959,0,0,1,2.794,1.95,11.614,11.614,0,0,1,1.455,1.8c.041.3.072.606.09.907.333,4.913-1.744,9.79-3.6,14.472a10.494,10.494,0,0,0-1.077,4.1,8.826,8.826,0,0,0-1.009.664,5.611,5.611,0,0,1,.185,2.613,4.291,4.291,0,0,1-.374,1.649,11.344,11.344,0,0,1-.649,1.059,14.648,14.648,0,0,0-1.658,6.274c-.14,1.3.41,2.885-.234,4.048a15.6,15.6,0,0,0-2.253,6.34,5.847,5.847,0,0,1-.207,1.48c-.14.412-.388.763-.514,1.167a4.576,4.576,0,0,0-.09,1.649,14.551,14.551,0,0,1-.946,5.816c-.563,1.471-1.185,3.046-.743,4.559a6.2,6.2,0,0,0-1.906,3.829,5.546,5.546,0,0,1-.144,1.092,5.116,5.116,0,0,1-.541,1.051,8.565,8.565,0,0,0-1.226,4.946,13.084,13.084,0,0,0-2.429,5.8c-.4,2.057-.577,4.151-1.09,6.183-.685,2.688-1.924,5.4-2.167,8.157a5.625,5.625,0,0,0-2.37,4.068,16.774,16.774,0,0,1-1.041,4.645c-.369.75-.9,1.422-1.253,2.189a9.363,9.363,0,0,0-.541,1.884,6.742,6.742,0,0,0-.14,3.092,5.08,5.08,0,0,1-1.32.919c.072-.256.131-.511.18-.771-1.162.965-3.271.627-4.2,1.785a1.646,1.646,0,0,0,.451,2.387,3.791,3.791,0,0,0,.933.367c2.253.659,4.569,1.323,6.885.973a2.192,2.192,0,0,0,.779-.227,2.368,2.368,0,0,0,.725-.767c.347-.5.694-1.006,1.036-1.509a23.081,23.081,0,0,0,2.528.54c.086.659.149,1.319.18,1.979.451.082,1.054.107,1.266-.276a.925.925,0,0,0,.077-.458c0-.293.045-.68.072-1.076h.09a9.247,9.247,0,0,0,3.988-.738c-.482-3.652,1.108-7.222,2.487-10.676,1.455-3.635,2.7-7.337,3.961-11.039.9-2.605,1.9-5.128,2.78-7.737q1.667-4.946,3.348-9.893c.487-1.451.978-2.885,1.536-4.328a64.742,64.742,0,0,1,4.177-8.5c.451-.779.9-1.55,1.271-2.358.451-.985.771-2.016,1.131-3.034a44.927,44.927,0,0,1,2.83-6.092c.031-.054.054-.1.086-.152.365,1.364.73,2.749.973,4.122a14.351,14.351,0,0,1,.077,5.095,15.475,15.475,0,0,0-.577,3.454c.068,1.612,1.009,3.075,1.473,4.629a16.209,16.209,0,0,1,.5,3.545c.126,1.855,1.225,3.936.451,5.655-2.411,5.445-1.244,11.6-2.618,17.312-.707,2.935-2.875,5.693-2.7,8.693q.18,3.194.613,6.372a5.664,5.664,0,0,0,.563,1.933,7.026,7.026,0,0,0,.617.923c-.2.07-.365.256-.509.647a2.425,2.425,0,0,0,1,2.885,4.66,4.66,0,0,0,1.3.412,7.461,7.461,0,0,0,1.883.239,4.8,4.8,0,0,0,.59-.066q1.045.4,2.131.7a3.875,3.875,0,0,0,.059.507.61.61,0,0,0,.234.466.762.762,0,0,0,.36.058h2.447v-.561a1.676,1.676,0,0,0,2.005-1.319q1-3.1,1.987-6.212a18.277,18.277,0,0,0,.969-7.09c-.87-7.6,1.041-15.218.419-22.836a50.12,50.12,0,0,1,.766-13.7,29.573,29.573,0,0,0,.541-3.079c.2-1.921-.045-3.862.1-5.771.05-.668.149-1.331.239-1.995a87.789,87.789,0,0,0,.969-12.428,35.854,35.854,0,0,0-.279-4.122,2.634,2.634,0,0,0,1.23-.659,2.594,2.594,0,0,0,.293-1.76,11.909,11.909,0,0,1,1.212-4.213,46.679,46.679,0,0,0,1.7-5.8,18.629,18.629,0,0,0,.757-4.843,4.552,4.552,0,0,0-.027-.495,1.33,1.33,0,0,0,.414-.412,2.232,2.232,0,0,0,.216-.763c.162-1.051.329-2.106.491-3.162q.18-1.134.356-2.263l1.433-9.147c.122-.8.248-1.587.37-2.378l.374-2.366c.041-.28.086-.561.117-.824C855.02,506.206,853.971,503.964,853.853,502.051ZM841.9,536.3a7.011,7.011,0,0,1-.9-3.582h-.049a1.691,1.691,0,0,0-.059-1.162c-.14-.3-.383-.557-.532-.858a2.907,2.907,0,0,1-.243-1.154,28.857,28.857,0,0,1,.644-7.477c.059-.288.122-.581.18-.87a2.334,2.334,0,0,0,.514-.367,3.326,3.326,0,0,0,.581-.824c.509-.936.973-1.888,1.4-2.857.14-.313.343-.676.689-.754-.072,2.411.2,4.872-.874,7.049a4.226,4.226,0,0,0-.451,1.113c-.1.614.18,1.237.081,1.847-.05.317-.2.61-.257.923a.852.852,0,0,0,.261.874.813.813,0,0,0,.194.091c-.027.165-.05.334-.068.495-.036.338-.054.655-.077.853a24.331,24.331,0,0,0-.122,3.034c0,1.092.045,2.185.027,3.3a2.069,2.069,0,0,1-.171.936,1.648,1.648,0,0,1-.342.412A10.179,10.179,0,0,0,841.9,536.3Z" transform="translate(-439.161 -294.279)" fill="url(#linear-gradient)"/>
    <path id="Pfad_75" data-name="Pfad 75" d="M2.518.038c1.4.024,2.586,3,2.653,6.65s-1.013,6.588-2.412,6.565S.173,10.252.106,6.6,1.119.014,2.518.038Z" transform="matrix(0.98, -0.201, 0.201, 0.98, 361.811, 181.761)" fill="#fbbebe"/>
    <path id="Pfad_56" data-name="Pfad 56" d="M878.229,837.419a2.382,2.382,0,0,0,1,2.857,4.735,4.735,0,0,0,1.293.412,7.417,7.417,0,0,0,1.879.235c.78-.033,1.527-.313,2.307-.412a.39.39,0,0,1,.266.033.332.332,0,0,1,.1.289,9.98,9.98,0,0,0,.1,1.212.6.6,0,0,0,.234.466.761.761,0,0,0,.36.058h2.442a20.02,20.02,0,0,0-.7-5.829,1.242,1.242,0,0,0-.18-.412,1.528,1.528,0,0,0-.779-.412,4.719,4.719,0,0,0-1.888-.3,5.757,5.757,0,0,0-2.118.948,3.459,3.459,0,0,1-2.4.532C879.328,836.9,878.648,836.273,878.229,837.419Z" transform="translate(-490.062 -510.74)" fill="#3f3d56"/>
    <path id="Pfad_57" data-name="Pfad 57" d="M795.131,834.4a6.815,6.815,0,0,1-2.465,1.533l-.415.181a.284.284,0,0,0-.14.1.208.208,0,0,0,.045.186,3.054,3.054,0,0,0,3.307,1.1,1.814,1.814,0,0,0,.725-.346,2.074,2.074,0,0,0,.559-1.327,2.5,2.5,0,0,0-.068-1.521C796.055,833.021,795.825,833.606,795.131,834.4Z" transform="translate(-442.821 -509.533)" fill="#fbbebe"/>
    <path id="Pfad_58" data-name="Pfad 58" d="M801.13,839.819a.926.926,0,0,1-.077.458c-.212.379-.8.359-1.262.276a25.5,25.5,0,0,0-.554-4.163c-.874-.037-1.5.721-1.974,1.4l-1.208,1.752a2.356,2.356,0,0,1-.721.767,2.28,2.28,0,0,1-.779.227,16.024,16.024,0,0,1-6.862-.973,3.821,3.821,0,0,1-.933-.363,1.649,1.649,0,0,1-.451-2.382c.933-1.154,3.028-.824,4.19-1.781a8.962,8.962,0,0,1-.595,1.966c1.554-.214,2.6-1.517,3.852-2.387a2.47,2.47,0,0,1,1.1-.478,2.633,2.633,0,0,1,.9.087,11,11,0,0,1,3.965,1.785c.473.342,1.212.824,1.419,1.352A9.16,9.16,0,0,1,801.13,839.819Z" transform="translate(-439.457 -509.872)" fill="#3f3d56"/>
    <ellipse id="Ellipse_11" data-name="Ellipse 11" cx="9.309" cy="8.516" rx="9.309" ry="8.516" transform="translate(383.36 176.915)" fill="#fbbebe"/>
    <path id="Pfad_59" data-name="Pfad 59" d="M917.32,615.483a18.6,18.6,0,0,1-.753,4.819,46.405,46.405,0,0,1-1.7,5.771,11.851,11.851,0,0,0-1.2,4.2,2.588,2.588,0,0,1-.3,1.756,2.875,2.875,0,0,1-1.316.688,1.6,1.6,0,0,0-1.108.9,6.124,6.124,0,0,1-.937-1.888q-1.212-3.4-2.253-6.83a.821.821,0,0,1,.063-.824,1.15,1.15,0,0,1,.392-.2,4.118,4.118,0,0,0,1.248-.734,1.7,1.7,0,0,0,.415-.491,2.053,2.053,0,0,0,.176-.932c0-1.092,0-2.18-.031-3.273a25.016,25.016,0,0,1,.126-3.021c0-.2.041-.515.077-.853.068-.647.2-1.4.586-1.649.572-.35,2.284.12,2.933.2,1.117.14,2.253.3,3.343.5A7.5,7.5,0,0,1,917.32,615.483Z" transform="translate(-506.313 -379.772)" fill="#3f3d56"/>
    <path id="Pfad_60" data-name="Pfad 60" d="M833.239,508.294c-.36.659-1.225.977-1.892,1.393l-2.284,1.434a1.614,1.614,0,0,1-1.131.354,1.442,1.442,0,0,1-.842-.721.135.135,0,0,0,0-.033l-.473-.726-2.253-3.454a1.865,1.865,0,0,1-.419-1.063,5.181,5.181,0,0,1,.086-.519,2.343,2.343,0,0,0-.451-1.4c-.18-.309-.541-.565-.532-.911a3.05,3.05,0,0,1,.252-1.331,2.81,2.81,0,0,1,.987-.965c.212-.14.428-.272.653-.412a1.347,1.347,0,0,1,.392-.165c.374-.07.743.214,1.122.227,1.627,1,2.253,2.885,3.533,4.246.721.775.793,1.368,1.609,2.061.131.107.257.223.378.342a2.4,2.4,0,0,1,.406.536C832.527,507.54,833.424,507.956,833.239,508.294Z" transform="translate(-459.819 -313.329)" fill="#3f3d56"/>
    <path id="Pfad_61" data-name="Pfad 61" d="M876.013,509.063a7.138,7.138,0,0,1,1,4.151,2.444,2.444,0,0,1-.392,1.092c-.649.911-2.01,1.076-3.195,1.129a2,2,0,0,0-1.388.412,1.078,1.078,0,0,0,.086,1.41,3.523,3.523,0,0,0,1.379.824,13.162,13.162,0,0,0,5.934,1.2c.946-.083,1.865-.334,2.807-.462q1.54-.153,3.091-.157c1.226-.041,2.447-.153,3.668-.264l3.235-.293a.761.761,0,0,0,.482-.161c.239-.255-.068-.631-.365-.824-1.717-1.162-3.9-1.962-4.88-3.71a20.483,20.483,0,0,1-.924-2.7,21.48,21.48,0,0,1-1.072-2.6,15.779,15.779,0,0,1-.149-2.4,3.066,3.066,0,0,0-.9-2.193,4,4,0,0,0-2.451-.721A8.423,8.423,0,0,0,876,504.578c-.41.375-.761.824-1.185,1.162s-1,.437-.721.882.829.721,1.126,1.113A9.25,9.25,0,0,1,876.013,509.063Z" transform="translate(-486.616 -315.112)" fill="#fbbebe"/>
    <path id="Pfad_62" data-name="Pfad 62" d="M882.47,531.98a43.723,43.723,0,0,1-2.757,9.287,33.059,33.059,0,0,0-1.622,4.163c-.347,1.278-.279,2.646-.6,3.928-.4,1.6-.793,3.195-1.113,4.8a28.875,28.875,0,0,0-.64,7.461,2.888,2.888,0,0,0,.243,1.15c.149.3.388.552.527.857a1.9,1.9,0,0,1-.126,1.649,4.763,4.763,0,0,1-.928,1.286c-4.2,1.146-8.692.771-13.067,1.014-4.033.223-8.11.981-12.084.35-.451-1.649.3-3.376.946-4.983,1.87-4.67,3.938-9.534,3.6-14.427a13.727,13.727,0,0,0-.212-1.7,20.763,20.763,0,0,1,1.2-10.416,16.408,16.408,0,0,0,.514-6.5,10.858,10.858,0,0,1-.031-2.131,3.569,3.569,0,0,1,.847-1.991c0-.029.041-.058.063-.087a.676.676,0,0,1,.338,0h0a.313.313,0,0,0,.225,0l.05-.029a.121.121,0,0,1,.131,0c.1.058.162.256.387.293a9.8,9.8,0,0,0,1,.087,5.883,5.883,0,0,1,1.2.157h.054a3.83,3.83,0,0,0,1.748-.136,4.916,4.916,0,0,0,1.072-.379,7.354,7.354,0,0,1,.847-.26c.41-.227.32-1.29.406-1.727a4.418,4.418,0,0,1,.338-1.278,2.428,2.428,0,0,1,1.929-1.026,11.191,11.191,0,0,1,2.311.19c1.681.218,3.4.181,5.051.536a4.093,4.093,0,0,0,2.5.1c.207.045.239.21.239.412a2.449,2.449,0,0,1-.126.565c-.288,1.138.689,2.185,1.59,3.009a5.053,5.053,0,0,0,1.329.969c.451.19.9.268,1.352.474a2.393,2.393,0,0,1,.9.754,3,3,0,0,1,.514,1.2A6.577,6.577,0,0,1,882.47,531.98Z" transform="translate(-474.72 -326.037)" fill="#3f3d56"/>
    <path id="Pfad_63" data-name="Pfad 63" d="M887.64,538.044a43.723,43.723,0,0,1-2.758,9.287,33.052,33.052,0,0,0-1.622,4.163c-.347,1.278-.279,2.646-.6,3.928-.4,1.6-.793,3.195-1.113,4.8-.095.049-.194.095-.293.136a7.383,7.383,0,0,1-1.766.519,11.8,11.8,0,0,1-3.3-.1l-6.43-.787c-2.568-.317-5.3-.7-7.209-2.292a14.213,14.213,0,0,1-2.514-3.141,13.728,13.728,0,0,0-.212-1.7,20.764,20.764,0,0,1,1.2-10.416,16.4,16.4,0,0,0,.514-6.5,10.878,10.878,0,0,1-.031-2.131,3.57,3.57,0,0,1,.847-1.991,3.473,3.473,0,0,1,.4-.082h0a2.172,2.172,0,0,1,.275-.033h.131a2.151,2.151,0,0,1,.451.049,8.629,8.629,0,0,1,.9.318h.054a3.751,3.751,0,0,0,1.2.157c.595,0,1.208-.087,1.8-.124a3.591,3.591,0,0,1,2.136.35,12.477,12.477,0,0,1,1.19.993,5.271,5.271,0,0,0,1.5.746,17.324,17.324,0,0,0,11.994-.231,2.521,2.521,0,0,1,1.2-.28,2.368,2.368,0,0,1,.865.338c.27.144.536.284.811.412a3,3,0,0,1,.514,1.2A6.576,6.576,0,0,1,887.64,538.044Z" transform="translate(-479.891 -332.102)" opacity="0.1"/>
    <path id="Pfad_64" data-name="Pfad 64" d="M886.819,534.187a25.242,25.242,0,0,1-5.137-2.061,2.421,2.421,0,0,0-.865-.338,2.6,2.6,0,0,0-1.208.28,17.315,17.315,0,0,1-11.99.231,5.381,5.381,0,0,1-1.5-.746,13.1,13.1,0,0,0-1.19-.993c-1.482-.878-3.533.152-5.191-.412q-.441-.18-.9-.317c-1.311-.3-2.645.894-3.934.532a18.7,18.7,0,0,0-1.059,3.677,36.715,36.715,0,0,0-.293,4.336c0,.87-.045,1.74,0,2.609a1.175,1.175,0,0,1,.784.466.976.976,0,0,1-.072.886,32.584,32.584,0,0,1-3.325,6.434,15.222,15.222,0,0,1,2.785,1.945c1.577,1.525,2.352,3.664,4.055,5.074,1.919,1.587,4.654,1.974,7.209,2.288l6.43.787a12,12,0,0,0,3.3.1,7.418,7.418,0,0,0,1.762-.524,3.19,3.19,0,0,0,.982-.594,3.279,3.279,0,0,0,.581-.824c.509-.932.973-1.884,1.4-2.848.149-.342.374-.742.779-.771,2.388-1.97,4.641-3.99,7.029-5.96a14.882,14.882,0,0,0,2.564-2.473c1.185-1.6.108-3.875,0-5.812a6.743,6.743,0,0,0-.2-1.471C889.23,536.285,888.32,534.6,886.819,534.187Z" transform="translate(-475.145 -330.974)" fill="#74c69d"/>
    <path id="Pfad_65" data-name="Pfad 65" d="M838.166,518.007c-.36.659-1.226.977-1.892,1.393l-2.284,1.434a1.614,1.614,0,0,1-1.131.354,1.442,1.442,0,0,1-.843-.721v-.3a2.547,2.547,0,0,1,.144-.985A3.126,3.126,0,0,1,833.169,518a8.433,8.433,0,0,1,2.96-1.649,1.1,1.1,0,0,1,.541-.049.748.748,0,0,1,.2.078,2.4,2.4,0,0,1,.406.536C837.454,517.253,838.351,517.669,838.166,518.007Z" transform="translate(-464.746 -323.042)" opacity="0.1"/>
    <path id="Pfad_66" data-name="Pfad 66" d="M844.227,522.732a3.365,3.365,0,0,1-1.951-1.022l-1.708-1.451a1.511,1.511,0,0,1-.3-.305,2.031,2.031,0,0,1-.207-.507,5.84,5.84,0,0,0-1.658-2.176.863.863,0,0,0-1.036-.272,8.411,8.411,0,0,0-2.96,1.649,3.135,3.135,0,0,0-1.009,1.187,2.523,2.523,0,0,0-.144.985,7.036,7.036,0,0,0,.784,3.149c.077.152.162.3.252.453a14.5,14.5,0,0,0,2.118,2.519l1.072,1.1c1.054,1.08,2.109,2.16,3.253,3.153a4.324,4.324,0,0,0,1.46.932,1.752,1.752,0,0,0,1.676-.247,2.173,2.173,0,0,0,.478-.783,14.36,14.36,0,0,0,1.392-5.14,17.78,17.78,0,0,0-.1-2.131C845.574,523.07,844.993,522.777,844.227,522.732Z" transform="translate(-465.427 -323.422)" fill="#74c69d"/>
    <path id="Pfad_67" data-name="Pfad 67" d="M852.257,643.913a87.3,87.3,0,0,1-.964,12.395c-.09.664-.189,1.327-.239,1.991-.149,1.925.095,3.858-.1,5.771-.1,1.035-.338,2.061-.536,3.071a50.027,50.027,0,0,0-.766,13.664c.622,7.6-1.284,15.2-.419,22.774a16.87,16.87,0,0,1-.266,4.406,17.361,17.361,0,0,1-.7,2.663q-.987,3.1-1.983,6.183a2.075,2.075,0,0,1-.451.857,2.275,2.275,0,0,1-1.69.458,20.825,20.825,0,0,1-7.407-2.1,2.637,2.637,0,0,1-.743-.412c-.491-.466-.451-1.2-.667-1.814A16.942,16.942,0,0,0,834.189,712a5.531,5.531,0,0,1-.491-1.875q-.451-3.166-.613-6.356c-.171-2.992,1.992-5.746,2.7-8.656,1.352-5.721.207-11.855,2.609-17.283.757-1.715-.343-3.792-.451-5.639a16.445,16.445,0,0,0-.5-3.537c-.451-1.55-1.4-3.009-1.469-4.617a15.625,15.625,0,0,1,.572-3.442,14.176,14.176,0,0,0-.077-5.082c-.239-1.385-.6-2.77-.969-4.122l-.081.153a44.543,44.543,0,0,0-2.825,6.08c-.36,1.01-.676,2.04-1.126,3.021a26.222,26.222,0,0,1-1.271,2.354,64.929,64.929,0,0,0-4.168,8.471c-.559,1.426-1.05,2.885-1.536,4.316l-3.339,9.893c-.9,2.6-1.888,5.115-2.771,7.712-1.248,3.71-2.5,7.387-3.947,11.014-1.352,3.442-2.96,7.007-2.478,10.643a9.247,9.247,0,0,1-3.979.738,25.1,25.1,0,0,1-6.759-1.5,5.371,5.371,0,0,1-2.334-1.27c-1-1.117-.752-2.753-.451-4.176a9.413,9.413,0,0,1,.541-1.88c.343-.758.9-1.43,1.253-2.18a16.941,16.941,0,0,0,1.032-4.629,5.591,5.591,0,0,1,2.361-4.06c.248-2.745,1.482-5.453,2.163-8.137.514-2.032.685-4.122,1.09-6.183a12.912,12.912,0,0,1,2.42-5.791,8.547,8.547,0,0,1,1.225-4.946,5.21,5.21,0,0,0,.536-1.051,5.539,5.539,0,0,0,.144-1.088,6.2,6.2,0,0,1,1.9-3.821c-.451-1.5.176-3.075.739-4.534a14.53,14.53,0,0,0,.946-5.8,4.656,4.656,0,0,1,.086-1.649c.126-.412.374-.763.518-1.158a6.07,6.07,0,0,0,.2-1.48,16.122,16.122,0,0,1,2.253-6.323c.649-1.162.1-2.741.234-4.035a14.529,14.529,0,0,1,1.658-6.253c.216-.354.451-.692.644-1.059a4.254,4.254,0,0,0,.374-1.649,5.573,5.573,0,0,0-.185-2.605c2.411-1.834,5.7-2.349,8.836-2.473s6.308.136,9.376-.474c.9-.185,1.8-.441,2.753-.565a19.394,19.394,0,0,1,6.479.606,6.573,6.573,0,0,0,.9,3.574,35.58,35.58,0,0,1,3.339,14.724Z" transform="translate(-446.152 -386.896)" fill="#33313f"/>
    <path id="Pfad_68" data-name="Pfad 68" d="M887.067,673.29l-5.177,10.651c-.239-1.385-.6-2.77-.969-4.122l-.081.153v-.223l2.821-5.676Z" transform="translate(-491.573 -415.329)" opacity="0.1"/>
    <path id="Pfad_69" data-name="Pfad 69" d="M920.387,615.483a2.059,2.059,0,0,1-1.027.35,5.431,5.431,0,0,1-1.685-.21l-4.055-.927a2.118,2.118,0,0,1-.37-.12c.068-.647.2-1.4.586-1.649.572-.35,2.284.12,2.933.2,1.117.14,2.253.3,3.343.5A7.514,7.514,0,0,1,920.387,615.483Z" transform="translate(-509.38 -379.772)" opacity="0.1"/>
    <path id="Pfad_70" data-name="Pfad 70" d="M923.3,557.934c.086.342.207.68.279,1.026a7.178,7.178,0,0,1-.095,2.551l-.37,2.358-.37,2.37-1.428,9.122-.352,2.259-.5,3.153a2.116,2.116,0,0,1-.216.758,1.759,1.759,0,0,1-1.41.763,5.554,5.554,0,0,1-1.685-.21l-4.055-.932a1.341,1.341,0,0,1-.5-.185.844.844,0,0,1-.261-.87c.059-.313.207-.606.257-.919.1-.61-.18-1.237-.081-1.842a4.345,4.345,0,0,1,.451-1.109c1.352-2.733.568-5.923,1.027-8.891a12.967,12.967,0,0,1,3.127-6.364,19.261,19.261,0,0,1,3.451-3.1,6.994,6.994,0,0,1,1.942-1.237C923.339,556.479,923.168,557.414,923.3,557.934Z" transform="translate(-508.867 -346.748)" fill="#74c69d"/>
    <path id="Pfad_71" data-name="Pfad 71" d="M863.464,470.686c-.3.866.167,1.818-.045,2.7-.23.973-1.23,1.649-1.514,2.626-.451,1.488.928,2.844,1.937,4.081,3.74,4.592,3.249,10.948,1.969,16.55a80.049,80.049,0,0,1-4.258,13.19,9.927,9.927,0,0,1-2.293,3.681c2.073-.544,4.276-1.092,6.353-.565,2.631.668,4.9,3,7.57,2.473,1.6-.326,2.73-1.628,4.172-2.35,2.7-1.331,5.961-.495,8.975-.066a3.837,3.837,0,0,0,1.96-.091,3.168,3.168,0,0,0,1.189-1,9.681,9.681,0,0,0,2.316-5.482,6.705,6.705,0,0,0-2.212-5.412,12.25,12.25,0,0,1-1.9-1.649,4.789,4.789,0,0,1-.744-2.5c-.356-4.534.852-9.163-.392-13.549a31.207,31.207,0,0,1-1.383-4.658c-.248-1.991.342-4.122-.523-5.944a6.239,6.239,0,0,0-3.8-3,22.562,22.562,0,0,0-5.065-.824C873.313,468.708,864.5,467.739,863.464,470.686Z" transform="translate(-479.717 -295.007)" fill="#33313f"/>
    <g id="Gruppe_1" data-name="Gruppe 1" transform="translate(379.543 174.735)" opacity="0.1">
      <path id="Pfad_72" data-name="Pfad 72" d="M868.635,505.381a79.871,79.871,0,0,1-4.235,13.137,18.388,18.388,0,0,0,.82-1.748,79.609,79.609,0,0,0,4.258-13.19c1.284-5.606,1.775-11.954-1.964-16.55-.9-1.1-2.059-2.284-2.019-3.57a4.29,4.29,0,0,0-.766,1.294c-.451,1.488.928,2.844,1.937,4.081C870.406,493.423,869.915,499.779,868.635,505.381Z" transform="translate(-862.084 -478.481)"/>
      <path id="Pfad_73" data-name="Pfad 73" d="M868.466,474.607a3.9,3.9,0,0,0,.793-1.389,6.467,6.467,0,0,0-.054-1.838,2,2,0,0,0-.748.944A7.466,7.466,0,0,0,868.466,474.607Z" transform="translate(-864.253 -471.38)"/>
      <path id="Pfad_74" data-name="Pfad 74" d="M890.327,567.227a3.158,3.158,0,0,1-1.19,1,3.748,3.748,0,0,1-1.96.091c-3.014-.412-6.308-1.261-8.975.07-1.446.717-2.568,2.02-4.177,2.35-2.663.544-4.934-1.793-7.565-2.473a11.493,11.493,0,0,0-5.709.412,7.225,7.225,0,0,1-1.491,1.97c2.073-.544,4.276-1.092,6.353-.565,2.631.668,4.9,3,7.57,2.473,1.6-.326,2.731-1.628,4.172-2.349,2.7-1.331,5.961-.495,8.975-.066a3.837,3.837,0,0,0,1.96-.091,3.166,3.166,0,0,0,1.189-1,10.785,10.785,0,0,0,1.865-3.265A11.931,11.931,0,0,1,890.327,567.227Z" transform="translate(-859.26 -526.869)"/>
    </g>
  </g>
</svg>
